<svg width="290" height="300" viewBox="0 0 290 300" fill="none" xmlns="http://www.w3.org/2000/svg">
<path d="M243.292 63.8363C220.749 27.2552 180.876 44.8938 150.107 31.7268C112.208 15.5055 92.0378 5.89607 57.4336 42.0024C9.64896 91.8285 -18.2582 207.511 35.0089 266.237C76.2089 311.67 164.941 308.119 210.611 274.21C269.557 230.45 285.403 132.222 243.292 63.8363Z" fill="#F1F0F0"/>
<path d="M78.1882 213.116C81.2247 203.677 76.2651 159.534 55.9603 140.478C49.477 134.398 42.167 128.934 38.1015 120.14C36.066 115.739 35.0763 110.693 33.3163 106.108C31.5563 101.523 28.6604 97.1293 24.6962 96.1443C18.2353 94.5285 12.4829 103.231 12.4492 111.522C12.4155 119.814 16.2672 127.262 20.1865 133.951C24.1058 140.641 28.3905 147.466 29.4533 155.658C30.6679 165.012 28.1262 176.797 34.1542 182.452C39.4229 187.413 48.1499 183.685 52.564 189.815C55.3755 193.727 54.9538 199.694 55.7354 204.889C56.517 210.083 60.5487 215.717 64.2431 213.208L78.1882 213.116Z" fill="#C9C9C9"/>
<path d="M72.9757 189.773C63.0173 189.773 53.3681 180.56 50.7928 168.385C50.5004 166.968 50.2867 165.551 50.0787 164.133C49.8116 161.904 49.3651 159.715 48.746 157.6C46.9579 152.065 42.9486 148.266 39.0631 144.574C37.7473 143.32 36.3865 142.023 35.127 140.67C28.2641 133.293 23.5065 123.287 21.5811 112.181L22.8912 111.827C24.751 122.568 29.3508 132.245 35.9873 139.38C37.2244 140.705 38.5683 141.988 39.8728 143.228C43.8989 147.055 48.06 151.023 49.9943 156.983C50.647 159.203 51.1181 161.502 51.4001 163.843C51.6025 165.203 51.8105 166.614 52.0973 167.953C54.5715 179.653 64.0463 188.504 73.6336 188.072L73.6786 189.759L72.9757 189.773Z" fill="#DCDBDB"/>
<path d="M61.8926 211.103C66.8802 208.467 67.853 199.382 65.0809 193.536C62.3087 187.689 57.113 184.451 52.086 181.949C47.059 179.448 41.7227 177.215 37.8597 172.453C34.1597 167.882 32.2704 161.554 30.2573 155.537C28.2443 149.521 25.8151 143.327 21.5079 139.699C17.2006 136.07 10.5036 136.155 7.59645 141.591C3.96396 148.33 8.32745 157.422 13.3488 162.546C18.3702 167.67 24.6849 172.255 26.1638 180.185C27.2321 185.918 25.399 192.026 26.4449 197.759C27.6145 204.187 32.1017 208.737 36.5664 212.166C41.0311 215.596 45.9456 218.608 49.0495 223.923C52.1535 229.238 52.5696 237.806 48.3354 241.675L61.8926 211.103Z" fill="#BBBBBB"/>
<path d="M56.6801 213.208C56.1684 207.376 50.8996 204.13 48.656 203.011C47.6944 202.529 46.6823 202.082 45.7039 201.65C42.6449 200.303 39.4848 198.914 37.0331 196.087C35.2056 193.961 34.7839 190.772 34.4128 187.675C34.2592 186.003 33.9632 184.356 33.53 182.764C31.8984 177.853 30.0086 173.085 27.8732 168.492C25.7056 163.837 23.7912 159.002 22.1433 154.021L23.386 153.404C25.0182 158.308 26.908 163.069 29.0428 167.655C31.2082 172.312 33.1225 177.146 34.7727 182.126C35.2432 183.83 35.5675 185.593 35.7398 187.385C36.1053 190.333 36.454 193.111 37.9384 194.818C40.1877 197.412 43.0779 198.688 46.1481 200.034C47.1378 200.474 48.1668 200.92 49.1508 201.416C54.369 204.038 57.5854 208.255 58.0071 213.003L56.6801 213.208Z" fill="#C9C9C9"/>
<path d="M187.258 0H90.5476C81.0323 0 73.3186 9.72143 73.3186 21.7134V244.857C73.3186 256.849 81.0323 266.57 90.5476 266.57H187.258C196.774 266.57 204.487 256.849 204.487 244.857V21.7134C204.487 9.72143 196.774 0 187.258 0Z" fill="#78479A"/>
<path d="M195.288 243V31.2945C195.288 24.6801 191.034 19.3181 185.785 19.3181L92.0211 19.3181C86.7728 19.3181 82.5181 24.6801 82.5181 31.2945L82.5181 243C82.5181 249.615 86.7728 254.977 92.0211 254.977H185.785C191.034 254.977 195.288 249.615 195.288 243Z" fill="#DDDCEE"/>
<path d="M181.528 224.037H97.97C93.8924 224.037 90.5869 228.202 90.5869 233.341V236.892C90.5869 242.031 93.8924 246.196 97.97 246.196H181.528C185.606 246.196 188.911 242.031 188.911 236.892V233.341C188.911 228.202 185.606 224.037 181.528 224.037Z" fill="#CAC8E4"/>
<path d="M160.206 6.47717H117.595C116.25 6.47717 115.16 7.85099 115.16 9.54568V10.715C115.16 12.4097 116.25 13.7835 117.595 13.7835H160.206C161.551 13.7835 162.641 12.4097 162.641 10.715V9.54568C162.641 7.85099 161.551 6.47717 160.206 6.47717Z" fill="white"/>
<path d="M219.029 242.065C221.465 224.744 218.841 206.897 211.64 191.828C208.688 185.712 204.971 180.043 203.25 173.218C201.53 166.394 202.486 157.762 207.282 153.936C212.63 149.684 220.136 153.659 223.645 160.314C227.154 166.968 227.722 175.288 228.183 183.239L239.907 124.257C240.913 119.183 241.965 113.988 244.332 109.701C246.7 105.414 250.703 102.147 254.819 102.784C259.919 103.578 263.468 110.112 263.996 116.554C264.525 122.995 262.759 129.345 261.022 135.433C256.523 151.184 252.025 166.935 247.526 182.686C249.195 175.649 252.034 169.14 255.854 163.592C259.674 158.045 264.387 153.586 269.681 150.513C276.17 146.807 285.386 146.374 288.872 154.198C291.611 160.335 289.019 168.407 284.768 172.963C280.517 177.52 274.984 179.596 269.833 182.318C260.654 187.221 252.344 194.385 245.392 203.39C238.439 212.396 232.984 223.06 229.347 234.759L219.029 242.065Z" fill="#C9C9C9"/>
<path d="M224.011 220.571L223.061 219.388C231.395 208.512 237.226 194.986 239.93 180.255C240.931 174.82 241.499 169.172 242.055 163.708C242.483 159.527 242.921 155.204 243.545 150.952C245.333 138.905 248.505 130.068 253.245 123.832L254.212 125.001C249.658 130.989 246.599 139.578 244.861 151.264C244.243 155.445 243.804 159.768 243.382 163.914C242.82 169.413 242.258 175.103 241.234 180.624C238.479 195.664 232.525 209.474 224.011 220.571V220.571Z" fill="#DCDBDB"/>
<path d="M230.629 210.452L229.701 209.233L244.479 191.303L259.436 173.155C265.363 165.955 271.3 159.435 278.745 158.691L278.847 160.37C271.846 161.079 266.11 167.393 260.369 174.366L245.412 192.515L230.629 210.452Z" fill="#DCDBDB"/>
<path d="M216.06 226.758C216.155 223.831 216.178 220.791 217.213 218.169C218.247 215.547 220.671 213.534 222.875 214.463C225.799 215.689 226.221 220.607 226.108 224.49L237.849 211.628C240.014 209.254 242.246 206.83 244.957 205.654C247.667 204.478 250.996 204.832 252.958 207.468C254.921 210.104 254.949 214.604 253.521 217.857C252.092 221.11 249.584 223.356 246.919 225C244.501 226.503 241.83 227.686 240.07 230.259C238.31 232.831 238.068 237.416 240.318 239.23C242.916 241.257 246.711 238.366 249.241 240.527C251.322 242.313 251.024 246.572 249.309 248.889C247.594 251.207 245.013 252.071 242.561 252.837L226.603 257.847C223.668 258.768 214.795 263.7 212.113 261.525C209.43 259.349 213.299 250.009 213.923 246.565C215.122 240.061 215.837 233.43 216.06 226.758Z" fill="#B4B4B4"/>
<path d="M46.3225 253.928C46.6181 244.7 45.1326 235.52 41.9936 227.175C38.8547 218.829 34.1559 211.569 28.3007 206.015C24.0834 202.096 19.3375 199.134 15.199 195.088C11.0604 191.041 7.43354 185.535 6.7644 178.987C0.691512 187.455 -1.10786 199.892 0.629658 211.096C2.36718 222.3 7.20862 232.399 13.0004 241.158C23.2916 256.643 36.5858 268.51 51.5913 275.606L46.3225 253.928Z" fill="#C9C9C9"/>
<path d="M58.5922 283.826C57.6363 265.04 48.9262 248.252 38.9116 234.291C33.5809 226.864 27.3787 218.53 28.1153 208.559C24.6978 213.977 22.4912 220.446 21.724 227.299C20.9568 234.152 21.6569 241.139 23.7518 247.536C28.8407 262.531 40.7728 271.63 51.9851 279.808L58.5922 283.826Z" fill="#BDBDBD"/>
<path d="M137.618 31.9252H36.9207C31.955 31.9252 27.9294 36.9985 27.9294 43.2567V96.3994C27.9294 102.658 31.955 107.731 36.9207 107.731H137.618C142.584 107.731 146.609 102.658 146.609 96.3994V43.2567C146.609 36.9985 142.584 31.9252 137.618 31.9252Z" fill="#E479B0"/>
<path d="M75.9278 73.1907H43.6853C42.4368 73.1907 41.4248 74.4661 41.4248 76.0395V77.1238C41.4248 78.6971 42.4368 79.9726 43.6853 79.9726H75.9278C77.1762 79.9726 78.1883 78.6971 78.1883 77.1238V76.0395C78.1883 74.4661 77.1762 73.1907 75.9278 73.1907Z" fill="#FCE0EC"/>
<path d="M130.725 73.1907H84.655C83.4066 73.1907 82.3945 74.4661 82.3945 76.0395V77.1238C82.3945 78.6971 83.4066 79.9726 84.655 79.9726H130.725C131.973 79.9726 132.985 78.6971 132.985 77.1238V76.0395C132.985 74.4661 131.973 73.1907 130.725 73.1907Z" fill="#FCE0EC"/>
<path d="M69.7931 85.6632H43.6853C42.4368 85.6632 41.4248 86.9387 41.4248 88.512V89.5963C41.4248 91.1696 42.4368 92.4451 43.6853 92.4451H69.7931C71.0415 92.4451 72.0535 91.1696 72.0535 89.5963V88.512C72.0535 86.9387 71.0415 85.6632 69.7931 85.6632Z" fill="#FCE0EC"/>
<path d="M112.332 85.6632H78.5258C77.2774 85.6632 76.2654 86.9387 76.2654 88.512V89.5963C76.2654 91.1696 77.2774 92.4451 78.5258 92.4451H112.332C113.58 92.4451 114.592 91.1696 114.592 89.5963V88.512C114.592 86.9387 113.58 85.6632 112.332 85.6632Z" fill="#FCE0EC"/>
<path d="M59.098 60.7253H43.6853C42.4368 60.7253 41.4248 62.0008 41.4248 63.5742V64.6584C41.4248 66.2318 42.4368 67.5072 43.6853 67.5072H59.098C60.3465 67.5072 61.3585 66.2318 61.3585 64.6584V63.5742C61.3585 62.0008 60.3465 60.7253 59.098 60.7253Z" fill="#FCE0EC"/>
<path d="M90.6885 60.7253H67.8252C66.5767 60.7253 65.5647 62.0008 65.5647 63.5742V64.6584C65.5647 66.2318 66.5767 67.5072 67.8252 67.5072H90.6885C91.9369 67.5072 92.9489 66.2318 92.9489 64.6584V63.5742C92.9489 62.0008 91.9369 60.7253 90.6885 60.7253Z" fill="#FCE0EC"/>
<path d="M59.8402 52.6252C68.9114 52.6252 76.2651 43.3575 76.2651 31.9252C76.2651 20.4929 68.9114 11.2252 59.8402 11.2252C50.769 11.2252 43.4153 20.4929 43.4153 31.9252C43.4153 43.3575 50.769 52.6252 59.8402 52.6252Z" fill="#D54092"/>
<path d="M59.8404 36.3544C63.9303 36.3544 67.2459 32.1758 67.2459 27.0213C67.2459 21.8668 63.9303 17.6882 59.8404 17.6882C55.7504 17.6882 52.4348 21.8668 52.4348 27.0213C52.4348 32.1758 55.7504 36.3544 59.8404 36.3544Z" fill="#FCE0EC"/>
<path d="M59.818 38.2182C55.0143 38.2072 50.3944 40.5442 46.9299 44.7379C48.4661 47.1942 50.4242 49.1795 52.657 50.5446C54.8898 51.9096 57.3391 52.6187 59.8208 52.6187C62.3024 52.6187 64.7517 51.9096 66.9845 50.5446C69.2173 49.1795 71.1754 47.1942 72.7116 44.7379C69.2438 40.5463 64.6229 38.2098 59.818 38.2182V38.2182Z" fill="#FCE0EC"/>
<path d="M128.981 98.3411V130.018C128.981 130.641 128.835 131.249 128.561 131.767C128.286 132.284 127.896 132.688 127.44 132.926C126.984 133.164 126.482 133.226 125.997 133.105C125.513 132.983 125.068 132.684 124.719 132.244L98.7124 99.4679L128.981 98.3411Z" fill="#E479B0"/>
<path d="M114.873 216.688L215.571 216.688C220.536 216.688 224.562 211.614 224.562 205.356V152.214C224.562 145.955 220.536 140.882 215.571 140.882H114.873C109.908 140.882 105.882 145.955 105.882 152.214V205.356C105.882 211.614 109.908 216.688 114.873 216.688Z" fill="#A97FB9"/>
<path d="M154.004 182.155H121.761C120.513 182.155 119.501 183.43 119.501 185.003V186.088C119.501 187.661 120.513 188.936 121.761 188.936H154.004C155.252 188.936 156.264 187.661 156.264 186.088V185.003C156.264 183.43 155.252 182.155 154.004 182.155Z" fill="#E7D4E7"/>
<path d="M208.8 182.155H162.731C161.482 182.155 160.47 183.43 160.47 185.003V186.088C160.47 187.661 161.482 188.936 162.731 188.936H208.8C210.049 188.936 211.061 187.661 211.061 186.088V185.003C211.061 183.43 210.049 182.155 208.8 182.155Z" fill="#E7D4E7"/>
<path d="M147.869 194.627H121.761C120.513 194.627 119.501 195.903 119.501 197.476V198.56C119.501 200.134 120.513 201.409 121.761 201.409H147.869C149.118 201.409 150.13 200.134 150.13 198.56V197.476C150.13 195.903 149.118 194.627 147.869 194.627Z" fill="#E7D4E7"/>
<path d="M190.402 194.627H156.596C155.348 194.627 154.336 195.903 154.336 197.476V198.56C154.336 200.134 155.348 201.409 156.596 201.409H190.402C191.65 201.409 192.662 200.134 192.662 198.56V197.476C192.662 195.903 191.65 194.627 190.402 194.627Z" fill="#E7D4E7"/>
<path d="M137.174 169.682H121.761C120.513 169.682 119.501 170.958 119.501 172.531V173.615C119.501 175.189 120.513 176.464 121.761 176.464H137.174C138.423 176.464 139.435 175.189 139.435 173.615V172.531C139.435 170.958 138.423 169.682 137.174 169.682Z" fill="#E7D4E7"/>
<path d="M168.764 169.682H145.901C144.653 169.682 143.641 170.958 143.641 172.531V173.615C143.641 175.189 144.653 176.464 145.901 176.464H168.764C170.013 176.464 171.025 175.189 171.025 173.615V172.531C171.025 170.958 170.013 169.682 168.764 169.682Z" fill="#E7D4E7"/>
<path d="M192.645 161.582C201.717 161.582 209.07 152.314 209.07 140.882C209.07 129.45 201.717 120.182 192.645 120.182C183.574 120.182 176.22 129.45 176.22 140.882C176.22 152.314 183.574 161.582 192.645 161.582Z" fill="#683D86"/>
<path d="M192.646 145.318C196.736 145.318 200.051 141.14 200.051 135.985C200.051 130.831 196.736 126.652 192.646 126.652C188.556 126.652 185.24 130.831 185.24 135.985C185.24 141.14 188.556 145.318 192.646 145.318Z" fill="#E7D4E7"/>
<path d="M192.645 147.182C197.45 147.174 202.071 149.51 205.539 153.702C204.003 156.158 202.045 158.143 199.812 159.508C197.579 160.873 195.13 161.583 192.648 161.583C190.167 161.583 187.717 160.873 185.484 159.508C183.252 158.143 181.294 156.158 179.757 153.702C183.222 149.508 187.842 147.171 192.645 147.182V147.182Z" fill="#E7D4E7"/>
<path d="M123.51 207.341V239.018C123.511 239.64 123.658 240.247 123.933 240.763C124.208 241.28 124.598 241.682 125.054 241.92C125.51 242.157 126.011 242.219 126.495 242.097C126.979 241.975 127.423 241.676 127.772 241.236L153.779 208.46L123.51 207.341Z" fill="#A97FB9"/>
</svg>
