<svg width="263" height="229" viewBox="0 0 263 229" fill="none" xmlns="http://www.w3.org/2000/svg">
<path d="M240.313 46.7974C237.487 43.1265 234.104 39.9198 230.288 37.2934V65.7793H216.734V92.4686H199.522V27.7764C193.285 27.1775 186.886 26.9562 180.507 26.6372L162.097 42.6443V93.7575H137.359V49.564H106.411V32.639L87.7079 22.8747V13.3511C85.3239 14.1161 82.9909 15.0315 80.7227 16.0917V19.2033L77.6631 17.6019C74.681 19.1691 71.7923 20.908 69.0114 22.8096V46.7648H43.0369C24.3926 69.62 11.4118 100.645 9.83643 130.68C10.4874 149.616 13.0914 166.001 17.9998 176.592C18.0389 176.67 18.078 176.742 18.1105 176.82C18.5141 177.673 18.9308 178.525 19.3604 179.365L19.6599 179.925C20.0374 180.654 20.428 181.377 20.8316 182.093L21.2613 182.835C21.6324 183.486 22.0165 184.137 22.4136 184.788L22.9474 185.634C23.3249 186.233 23.7155 186.825 24.1126 187.411C24.3166 187.719 24.5336 188.025 24.7636 188.329C25.1477 188.889 25.5448 189.442 25.9484 189.989L26.6515 190.939C27.0551 191.473 27.4652 192 27.8819 192.521L28.6435 193.478C29.0667 193.992 29.5028 194.5 29.9455 195.001C30.2189 195.32 30.4858 195.652 30.7658 195.945C31.2215 196.453 31.6902 196.954 32.1589 197.455L32.9921 198.341C33.5129 198.874 34.0533 199.402 34.5936 199.929C34.8475 200.17 35.0883 200.424 35.3422 200.664C36.1451 201.428 36.9675 202.179 37.8095 202.917C40.3515 205.149 43.0348 207.214 45.8427 209.101C48.7377 211.003 51.737 212.742 54.8264 214.309C58.8348 216.359 62.9656 218.161 67.1952 219.705C71.592 221.315 76.0705 222.693 80.6121 223.832C81.5365 224.066 82.4609 224.288 83.3983 224.483C85.2601 224.913 87.148 225.316 89.0489 225.681C94.8407 226.797 100.685 227.618 106.561 228.141C108.546 228.317 110.532 228.467 112.53 228.584C118.513 228.936 124.554 229.014 130.582 228.831C135.601 228.675 140.607 228.337 145.555 227.822C147.293 227.64 149.018 227.438 150.763 227.217L151.134 227.165C152.826 226.944 154.512 226.696 156.192 226.436L156.537 226.384C158.243 226.11 159.94 225.815 161.628 225.499H161.804C163.54 225.177 165.256 224.832 166.953 224.464L174.361 222.699H174.407C175.539 222.409 176.664 222.103 177.779 221.782C178.43 221.599 179.081 221.404 179.732 221.215C180.533 220.974 181.333 220.74 182.127 220.486L183.657 220.004C184.959 219.575 186.261 219.139 187.563 218.703C188.416 218.403 189.256 218.097 190.096 217.778C191.771 217.153 193.411 216.502 195.017 215.825C199.67 213.885 204.189 211.638 208.545 209.101C209.71 208.411 210.849 207.701 211.982 206.979L212.854 206.412C213.87 205.761 214.879 205.111 215.862 204.394L216.194 204.167C217.287 203.405 218.349 202.617 219.403 201.823L220.145 201.257C221.061 200.545 221.966 199.827 222.86 199.102L223.29 198.751C224.312 197.911 225.314 197.045 226.297 196.147L226.844 195.659C227.716 194.871 228.569 194.077 229.448 193.27L229.845 192.886C230.809 191.948 231.752 191.004 232.677 190.034C232.781 189.937 232.872 189.826 232.976 189.722C233.829 188.83 234.662 187.919 235.483 187.001L235.802 186.636C237.605 184.592 239.323 182.483 240.957 180.329L241.185 180.036C242.834 177.866 244.395 175.624 245.866 173.311L245.99 173.116C247.483 170.79 248.878 168.418 250.175 166.001L250.228 165.91C251.53 163.453 252.749 160.963 253.886 158.437C258.905 147.136 261.984 127.191 263 104.596C261.224 83.5326 253.339 63.4454 240.313 46.7974V46.7974Z" fill="#E0E1E0"/>
<path d="M200.44 3.69745H194.822V10.7213H200.44V3.69745Z" fill="white"/>
<path d="M221.201 12.4637L223.986 15.2485C224.144 15.406 224.232 15.6196 224.232 15.8423C224.232 16.065 224.144 16.2786 223.986 16.4361L219.613 20.8089L215.641 16.8365L220.014 12.4637C220.171 12.3062 220.385 12.2178 220.608 12.2178C220.83 12.2178 221.044 12.3062 221.201 12.4637V12.4637Z" fill="white"/>
<path d="M179.633 16.8384L175.66 20.8108L171.283 16.4334C171.125 16.2759 171.037 16.0623 171.037 15.8396C171.037 15.6169 171.125 15.4033 171.283 15.2458L174.082 12.4472C174.24 12.2957 174.452 12.2124 174.671 12.215C174.891 12.2175 175.1 12.3059 175.255 12.461L179.628 16.8338L179.633 16.8384Z" fill="white"/>
<path d="M197.634 68.3376C214.19 68.3376 227.612 54.9166 227.612 38.361C227.612 21.8053 214.19 8.38434 197.634 8.38434C181.078 8.38434 167.656 21.8053 167.656 38.361C167.656 54.9166 181.078 68.3376 197.634 68.3376Z" fill="#25F321"/>
<path d="M197.634 62.9542C211.217 62.9542 222.228 51.9434 222.228 38.361C222.228 24.7785 211.217 13.7678 197.634 13.7678C184.051 13.7678 173.04 24.7785 173.04 38.361C173.04 51.9434 184.051 62.9542 197.634 62.9542Z" fill="#DDDCEE"/>
<path d="M204.424 0H190.838C189.285 0 188.025 1.25758 188.025 2.80889C188.025 4.36019 189.285 5.61777 190.838 5.61777H204.424C205.977 5.61777 207.236 4.36019 207.236 2.80889C207.236 1.25758 205.977 0 204.424 0Z" fill="#25F321"/>
<path d="M197.634 42.462C199.899 42.462 201.735 40.6259 201.735 38.361C201.735 36.096 199.899 34.2599 197.634 34.2599C195.369 34.2599 193.533 36.096 193.533 38.361C193.533 40.6259 195.369 42.462 197.634 42.462Z" fill="#27C6E9"/>
<path d="M195.822 37.2922L207.463 25.6513C207.906 25.2082 208.507 24.9592 209.134 24.9592C209.761 24.9592 210.362 25.2082 210.805 25.6513C211.24 26.0961 211.482 26.6946 211.479 27.3168C211.476 27.939 211.227 28.5347 210.787 28.9747L199.145 40.6156L195.822 37.2922Z" fill="#27C6E9"/>
<path d="M11.848 79.0589C15.1827 51.5541 27.3885 25.8846 46.6174 5.93668C48.9219 3.56068 51.643 1.1261 54.9501 1.02845C60.158 0.872223 63.5366 6.28169 65.8021 10.9686C77.6436 35.4707 89.739 61.0013 89.9733 88.2178C90.1035 104.127 86.1455 119.763 82.207 135.178C79.7528 144.812 76.9991 154.948 69.9489 161.945C55.1063 176.638 33.1484 168.637 25.0826 151.96C14.0614 129.163 8.84693 104.375 11.848 79.0589Z" fill="#C9C9C9"/>
<path d="M75.6516 99.499C78.5941 75.3107 89.3346 52.7386 106.248 35.1973C108.273 33.1078 110.668 30.9726 113.578 30.8815C118.135 30.7448 121.13 35.5033 123.122 39.6239C133.538 61.1706 144.168 83.6221 144.37 107.551C144.487 121.547 141.004 135.289 137.548 148.848C135.386 157.311 132.991 166.235 126.767 172.38C113.747 185.308 94.4066 178.272 87.3108 163.605C77.598 143.562 73.015 121.762 75.6516 99.499Z" fill="#B4B4B4"/>
<path d="M51.7993 66.1959H148.667C154.87 66.1959 160.819 68.6601 165.206 73.0464C169.592 77.4327 172.057 83.3817 172.057 89.5849V182.412H51.7993C50.6464 182.412 49.5049 182.184 48.4401 181.742C47.3753 181.3 46.4082 180.652 45.5942 179.836C44.7802 179.02 44.1353 178.051 43.6965 176.985C43.2577 175.919 43.0335 174.776 43.037 173.624V74.9578C43.037 72.634 43.9601 70.4054 45.6034 68.7622C47.2466 67.1191 49.4754 66.1959 51.7993 66.1959Z" fill="#3FDD18"/>
<path d="M45.0941 168.794H172.037V182.041C172.037 182.424 171.962 182.803 171.815 183.157C171.669 183.51 171.454 183.832 171.183 184.103C170.912 184.374 170.591 184.588 170.237 184.735C169.883 184.881 169.504 184.957 169.121 184.957H45.0941C43.8268 184.957 42.6114 184.454 41.7153 183.557C40.8192 182.661 40.3158 181.446 40.3158 180.179V173.565C40.3158 172.298 40.8192 171.083 41.7153 170.187C42.6114 169.291 43.8268 168.787 45.0941 168.787V168.794Z" fill="#78479A"/>
<path d="M172.057 182.411H244.668C246.129 182.411 247.575 182.123 248.924 181.564C250.273 181.004 251.499 180.184 252.53 179.15C253.562 178.116 254.379 176.888 254.936 175.538C255.493 174.188 255.777 172.741 255.774 171.28V137.339C255.773 135.209 255.161 133.123 254.01 131.331L229.22 92.7745C227.839 90.6244 225.939 88.8557 223.696 87.6307C221.453 86.4057 218.938 85.7637 216.383 85.7637H172.057V182.411Z" fill="#3FDD18"/>
<path d="M83.4244 201.517C93.991 201.517 102.557 192.952 102.557 182.386C102.557 171.819 93.991 163.254 83.4244 163.254C72.8578 163.254 64.2918 171.819 64.2918 182.386C64.2918 192.952 72.8578 201.517 83.4244 201.517Z" fill="#27C6E9"/>
<path d="M207.106 201.517C217.673 201.517 226.239 192.952 226.239 182.386C226.239 171.819 217.673 163.254 207.106 163.254C196.539 163.254 187.973 171.819 187.973 182.386C187.973 192.952 196.539 201.517 207.106 201.517Z" fill="#27C6E9"/>
<path d="M207.106 191.421C212.096 191.421 216.142 187.376 216.142 182.386C216.142 177.395 212.096 173.35 207.106 173.35C202.116 173.35 198.07 177.395 198.07 182.386C198.07 187.376 202.116 191.421 207.106 191.421Z" fill="#39234A"/>
<path d="M83.4569 191.421C88.4472 191.421 92.4926 187.376 92.4926 182.386C92.4926 177.395 88.4472 173.35 83.4569 173.35C78.4666 173.35 74.4211 177.395 74.4211 182.386C74.4211 187.376 78.4666 191.421 83.4569 191.421Z" fill="#39234A"/>
<path d="M192.088 134.078H235.737C236.541 134.078 237.331 133.862 238.023 133.451C238.714 133.041 239.283 132.452 239.669 131.746C240.054 131.04 240.243 130.243 240.214 129.44C240.185 128.636 239.941 127.854 239.506 127.178L223.98 103.027C223.574 102.396 223.016 101.878 222.357 101.518C221.699 101.159 220.961 100.97 220.21 100.97H192.088C190.9 100.97 189.761 101.442 188.921 102.282C188.081 103.122 187.609 104.261 187.609 105.449V129.599C187.609 130.787 188.081 131.926 188.921 132.766C189.761 133.606 190.9 134.078 192.088 134.078V134.078Z" fill="#DDDCEE"/>
<path d="M249.258 153.249H255.767V168.963H241.394V161.106C241.394 159.022 242.221 157.023 243.695 155.55C245.169 154.076 247.167 153.249 249.251 153.249H249.258Z" fill="white"/>
<path d="M57.4108 168.969H43.0369V153.255H49.5468C51.6308 153.255 53.6293 154.083 55.1029 155.557C56.5765 157.03 57.4043 159.028 57.4043 161.112V168.969H57.4108Z" fill="#F71919"/>
<path d="M256.653 168.794H239.18C237.253 168.794 235.691 170.356 235.691 172.283V181.468C235.691 183.395 237.253 184.957 239.18 184.957H256.653C258.58 184.957 260.142 183.395 260.142 181.468V172.283C260.142 170.356 258.58 168.794 256.653 168.794Z" fill="#78479A"/>
<path d="M121.032 133.883L117.966 140.9H172.057V133.883H121.032Z" fill="#EE71AB"/>
<path d="M103.918 140.9L106.984 133.883H43.037V140.9H103.918Z" fill="#EE71AB"/>
<path d="M130.244 112.785L124.118 126.82H172.057V112.785H130.244Z" fill="#FBDBE9"/>
<path d="M116.195 112.785H43.037V126.82H110.063L116.195 112.785Z" fill="#FBDBE9"/>
<path d="M58.7649 196.531C58.1855 194.611 57.6517 192.593 56.3432 191.082C55.0347 189.572 52.6586 188.739 50.9726 189.826C48.7397 191.271 49.2214 194.624 49.9765 197.175L37.9658 191.154C35.7589 190.041 33.4739 188.915 31.0132 188.713C28.5525 188.511 25.8053 189.455 24.627 191.623C23.4487 193.79 24.1713 196.791 25.929 198.647C27.6866 200.502 30.1734 201.446 32.6667 201.973C34.9387 202.448 37.3734 202.663 39.2873 203.997C41.2012 205.332 42.2037 208.313 40.5893 209.986C38.76 211.894 35.0949 210.78 33.3437 212.759C31.9116 214.387 32.8815 217.153 34.7043 218.318C36.5271 219.484 38.8316 219.516 41.0124 219.516L55.2105 219.425C57.8145 219.425 66.0625 220.786 67.9569 218.774C69.8513 216.763 65.0079 211.386 63.9012 209.238C61.7974 205.171 60.0778 200.917 58.7649 196.531V196.531Z" fill="#B4B4B4"/>
<path d="M61.46 219.724L53.1404 214.204C52.1313 213.553 51.0572 212.785 50.6666 211.64C50.0156 209.758 51.6626 207.734 53.583 207.194C55.5034 206.653 57.528 207.252 59.4419 207.89C65.4787 209.953 71.2584 212.703 76.6671 216.086C75.8469 213.482 75.0136 210.748 75.6776 208.118C76.3416 205.488 79.1344 203.197 81.6928 204.095C87.6363 206.198 90.6374 221.189 85.143 225.043C77.9691 230.049 67.4361 223.65 61.46 219.724Z" fill="#C9C9C9"/>
<path d="M32.1719 136.304H2.87087C1.28533 136.304 0 137.588 0 139.172C0 140.755 1.28533 142.039 2.87087 142.039H32.1719C33.7575 142.039 35.0428 140.755 35.0428 139.172C35.0428 137.588 33.7575 136.304 32.1719 136.304Z" fill="#27C6E9"/>
<path d="M32.1719 165.226H2.87087C1.28533 165.226 0 166.51 0 168.094C0 169.677 1.28533 170.961 2.87087 170.961H32.1719C33.7575 170.961 35.0428 169.677 35.0428 168.094C35.0428 166.51 33.7575 165.226 32.1719 165.226Z" fill="#27C6E9"/>
<path d="M32.1719 150.762H15.8907C14.3051 150.762 13.0198 152.046 13.0198 153.63C13.0198 155.213 14.3051 156.497 15.8907 156.497H32.1719C33.7575 156.497 35.0428 155.213 35.0428 153.63C35.0428 152.046 33.7575 150.762 32.1719 150.762Z" fill="#27C6E9"/>
</svg>
