<svg width="38" height="35" viewBox="0 0 38 35" fill="none" xmlns="http://www.w3.org/2000/svg">
<path d="M14.9413 27.0531C14.508 27.0531 12.8716 27.087 12.3808 27.1197C12.3808 27.1197 6.55934 31.6712 6.28724 31.6712C5.64845 31.6712 5.13345 31.1556 5.13345 30.5168V23.0461C2.08255 21.2859 0.516235 17.9711 0.516235 13.7871C0.516235 6.45681 6.97624 0.516479 14.9416 0.516479C22.9063 0.516479 29.3669 6.45681 29.3669 13.7871C29.3666 21.1128 22.906 27.0531 14.9413 27.0531Z" fill="#2196F3"/>
<path d="M14.3646 14.9605C13.3956 14.9605 12.6143 14.1725 12.6143 13.2093C12.6143 12.2404 13.3953 11.4591 14.3646 11.4591C15.3339 11.4591 16.1157 12.2401 16.1157 13.2093C16.1157 14.1725 15.3336 14.9605 14.3646 14.9605ZM20.1175 14.9605C19.1485 14.9605 18.3664 14.1725 18.3664 13.2093C18.3664 12.2404 19.1482 11.4591 20.1175 11.4591C21.0806 11.4591 21.8625 12.2401 21.8625 13.2093C21.8625 14.1725 21.0806 14.9605 20.1175 14.9605ZM8.61169 14.9605C7.64854 14.9605 6.86144 14.1725 6.86144 13.2093C6.86144 12.2404 7.64854 11.4591 8.61169 11.4591C9.58155 11.4591 10.3628 12.2401 10.3628 13.2093C10.3625 14.1725 9.58155 14.9605 8.61169 14.9605ZM27.8311 6.82757C25.2336 2.74726 20.4302 0 14.9415 0C6.70291 0.000291951 0 6.18499 0 13.7871C0 18.1092 1.63639 21.4873 4.61721 23.3386V30.5168C4.61721 31.4379 5.36665 32.1873 6.28746 32.1873C6.4965 32.1873 6.73444 32.187 12.5708 27.6262C13.1641 27.5979 14.5351 27.5693 14.9412 27.5693C14.9438 27.5693 14.9464 27.569 14.9491 27.569L14.9412 27.5783C17.4184 29.7212 20.6532 30.9013 24.0498 30.9013C24.4063 30.9013 25.598 30.9261 26.1323 30.9506C31.3144 35 31.517 35 31.7307 35C32.58 35 33.2711 34.3087 33.2711 33.4594V27.1202C35.9173 25.4622 37.3698 22.4537 37.3698 18.6099C37.3698 13.1512 33.4652 8.3647 27.8311 6.82757ZM12.3469 26.6049L12.1881 26.6154L12.0631 26.7133C9.59031 28.6463 6.78407 30.7848 6.18849 31.1471C5.8837 31.0992 5.64984 30.835 5.64984 30.5165V22.748L5.39176 22.5991C2.58056 20.9773 1.03234 17.8479 1.03234 13.7871C1.03234 6.754 7.27192 1.03263 14.9415 1.03263C22.6105 1.03263 28.8503 6.75429 28.8503 13.7871C28.8503 20.8176 22.6108 26.5372 14.9415 26.5372C14.5237 26.5369 12.8578 26.5708 12.3469 26.6049ZM32.4971 26.3813L32.239 26.5302V33.4594C32.239 33.7055 32.0633 33.9116 31.8309 33.958C31.2694 33.6086 28.8068 31.7313 26.6406 30.0377L26.515 29.9396L26.3568 29.9294C25.9028 29.899 24.4214 29.8692 24.0498 29.8692C21.2923 29.8692 18.6531 29.0325 16.5017 27.4939C24.0098 26.7719 29.8824 20.9005 29.8824 13.7871C29.8824 11.7761 29.4094 9.8662 28.5671 8.14165C33.203 9.82066 36.3377 13.9494 36.3377 18.6099C36.3374 22.1924 34.9737 24.9522 32.4971 26.3813Z" fill="#27C6E9"/>
</svg>
