<svg width="30" height="28" viewBox="0 0 30 28" fill="none" xmlns="http://www.w3.org/2000/svg">
<g filter="url(#filter0_d_681_19)">
<path d="M6.31494 22.0342V15.9806C2.13642 15.7257 2.00001 12.6134 2 10.7757C2 10.1876 2.00903 8.92028 2.11095 5.14797C2.21286 1.37565 4.9527 1.00608 6.31494 1.00607H19.4364C24.7871 0.814908 23.5266 5.16503 23.6586 10.2806C23.7726 14.6998 21.9266 15.8418 19.3533 15.8418L13.449 15.9806C12.6209 16.8303 10.5444 19.1534 8.41694 21.2058C6.53627 23.0201 6.31494 22.7395 6.31494 22.0342Z" fill="#2196F3"/>
<path d="M6.31494 22.0342V15.9806C2.13642 15.7257 2.00001 12.6134 2 10.7757C2 10.1876 2.00903 8.92028 2.11095 5.14797C2.21286 1.37565 4.9527 1.00608 6.31494 1.00607H19.4364C24.7871 0.814908 23.5266 5.16503 23.6586 10.2806C23.7726 14.6998 21.9266 15.8418 19.3533 15.8418L13.449 15.9806C12.6209 16.8303 10.5444 19.1534 8.41694 21.2058C6.53627 23.0201 6.31494 22.7395 6.31494 22.0342Z" fill="#2196F3" stroke="#2196F3" stroke-width="0.15"/>
</g>
<g filter="url(#filter1_d_681_19)">
<path d="M16.6163 17.9941H13.3705L11.3275 20.0006H15.7797L20.5157 24.6528C22.0017 26.0165 22.5179 24.3121 22.5179 23.3409V20.0006H24.0845C27.6803 20.0006 28.5644 17.1417 28.6246 15.1255C28.6848 13.1092 28.441 6.92649 28.3869 6.15758C28.2692 4.48357 25.8553 4.08112 25.0148 4.08112V6.15758C26.6738 6.15758 26.5756 7.12712 26.5756 8.05346V14.6539C26.5756 17.4222 25.7871 17.9941 24.0845 17.9941H20.4123L20.4949 21.9567L16.6163 17.9941Z" fill="#2196F3"/>
<path d="M16.6163 17.9941H13.3705L11.3275 20.0006H15.7797L20.5157 24.6528C22.0017 26.0165 22.5179 24.3121 22.5179 23.3409V20.0006H24.0845C27.6803 20.0006 28.5644 17.1417 28.6246 15.1255C28.6848 13.1092 28.441 6.92649 28.3869 6.15758C28.2692 4.48357 25.8553 4.08112 25.0148 4.08112V6.15758C26.6738 6.15758 26.5756 7.12712 26.5756 8.05346V14.6539C26.5756 17.4222 25.7871 17.9941 24.0845 17.9941H20.4123L20.4949 21.9567L16.6163 17.9941Z" fill="#2196F3" stroke="#2196F3" stroke-width="0.15"/>
</g>
<g filter="url(#filter2_d_681_19)">
<path d="M17.9079 9.87036C18.7489 9.87036 19.4307 9.18829 19.4307 8.34692C19.4307 7.50555 18.7489 6.82349 17.9079 6.82349C17.0668 6.82349 16.385 7.50555 16.385 8.34692C16.385 9.18829 17.0668 9.87036 17.9079 9.87036Z" fill="#FDDFDD"/>
<path d="M17.6548 9.78073C18.4464 9.78073 19.0881 9.13879 19.0881 8.34691C19.0881 7.55503 18.4464 6.91309 17.6548 6.91309C16.8633 6.91309 16.2216 7.55503 16.2216 8.34691C16.2216 9.13879 16.8633 9.78073 17.6548 9.78073Z" stroke="#FDDFDD" stroke-width="0.15"/>
</g>
<g filter="url(#filter3_d_681_19)">
<path d="M8.04604 9.87036C8.88709 9.87036 9.56889 9.18829 9.56889 8.34692C9.56889 7.50555 8.88709 6.82349 8.04604 6.82349C7.205 6.82349 6.52319 7.50555 6.52319 8.34692C6.52319 9.18829 7.205 9.87036 8.04604 9.87036Z" fill="#FDDFDD"/>
<path d="M8.04606 9.78073C8.83763 9.78073 9.47933 9.13879 9.47933 8.34691C9.47933 7.55503 8.83763 6.91309 8.04606 6.91309C7.25449 6.91309 6.61279 7.55503 6.61279 8.34691C6.61279 9.13879 7.25449 9.78073 8.04606 9.78073Z" stroke="#FDDFDD" stroke-width="0.15"/>
</g>
<g filter="url(#filter4_d_681_19)">
<path d="M13.0825 9.87036C13.9236 9.87036 14.6054 9.18829 14.6054 8.34692C14.6054 7.50555 13.9236 6.82349 13.0825 6.82349C12.2415 6.82349 11.5597 7.50555 11.5597 8.34692C11.5597 9.18829 12.2415 9.87036 13.0825 9.87036Z" fill="#FDDFDD"/>
<path d="M12.8295 9.78073C13.6211 9.78073 14.2628 9.13879 14.2628 8.34691C14.2628 7.55503 13.6211 6.91309 12.8295 6.91309C12.0379 6.91309 11.3962 7.55503 11.3962 8.34691C11.3962 9.13879 12.0379 9.78073 12.8295 9.78073Z" stroke="#FDDFDD" stroke-width="0.15"/>
</g>
<defs>
<filter id="filter0_d_681_19" x="0.925049" y="0.924988" width="23.8499" height="23.7263" filterUnits="userSpaceOnUse" color-interpolation-filters="sRGB">
<feFlood flood-opacity="0" result="BackgroundImageFix"/>
<feColorMatrix in="SourceAlpha" type="matrix" values="0 0 0 0 0 0 0 0 0 0 0 0 0 0 0 0 0 0 127 0" result="hardAlpha"/>
<feOffset dy="1"/>
<feGaussianBlur stdDeviation="0.5"/>
<feColorMatrix type="matrix" values="0 0 0 0 0 0 0 0 0 0 0 0 0 0 0 0 0 0 0.25 0"/>
<feBlend mode="normal" in2="BackgroundImageFix" result="effect1_dropShadow_681_19"/>
<feBlend mode="normal" in="SourceGraphic" in2="effect1_dropShadow_681_19" result="shape"/>
</filter>
<filter id="filter1_d_681_19" x="10.1442" y="4.0061" width="19.5649" height="23.2302" filterUnits="userSpaceOnUse" color-interpolation-filters="sRGB">
<feFlood flood-opacity="0" result="BackgroundImageFix"/>
<feColorMatrix in="SourceAlpha" type="matrix" values="0 0 0 0 0 0 0 0 0 0 0 0 0 0 0 0 0 0 127 0" result="hardAlpha"/>
<feOffset dy="1"/>
<feGaussianBlur stdDeviation="0.5"/>
<feColorMatrix type="matrix" values="0 0 0 0 0 0 0 0 0 0 0 0 0 0 0 0 0 0 0.25 0"/>
<feBlend mode="normal" in2="BackgroundImageFix" result="effect1_dropShadow_681_19"/>
<feBlend mode="normal" in="SourceGraphic" in2="effect1_dropShadow_681_19" result="shape"/>
</filter>
<filter id="filter2_d_681_19" x="15.1466" y="6.82349" width="5.28406" height="5.04688" filterUnits="userSpaceOnUse" color-interpolation-filters="sRGB">
<feFlood flood-opacity="0" result="BackgroundImageFix"/>
<feColorMatrix in="SourceAlpha" type="matrix" values="0 0 0 0 0 0 0 0 0 0 0 0 0 0 0 0 0 0 127 0" result="hardAlpha"/>
<feOffset dy="1"/>
<feGaussianBlur stdDeviation="0.5"/>
<feColorMatrix type="matrix" values="0 0 0 0 0 0 0 0 0 0 0 0 0 0 0 0 0 0 0.25 0"/>
<feBlend mode="normal" in2="BackgroundImageFix" result="effect1_dropShadow_681_19"/>
<feBlend mode="normal" in="SourceGraphic" in2="effect1_dropShadow_681_19" result="shape"/>
</filter>
<filter id="filter3_d_681_19" x="5.52319" y="6.82349" width="5.04565" height="5.04688" filterUnits="userSpaceOnUse" color-interpolation-filters="sRGB">
<feFlood flood-opacity="0" result="BackgroundImageFix"/>
<feColorMatrix in="SourceAlpha" type="matrix" values="0 0 0 0 0 0 0 0 0 0 0 0 0 0 0 0 0 0 127 0" result="hardAlpha"/>
<feOffset dy="1"/>
<feGaussianBlur stdDeviation="0.5"/>
<feColorMatrix type="matrix" values="0 0 0 0 0 0 0 0 0 0 0 0 0 0 0 0 0 0 0.25 0"/>
<feBlend mode="normal" in2="BackgroundImageFix" result="effect1_dropShadow_681_19"/>
<feBlend mode="normal" in="SourceGraphic" in2="effect1_dropShadow_681_19" result="shape"/>
</filter>
<filter id="filter4_d_681_19" x="10.3213" y="6.82349" width="5.28406" height="5.04688" filterUnits="userSpaceOnUse" color-interpolation-filters="sRGB">
<feFlood flood-opacity="0" result="BackgroundImageFix"/>
<feColorMatrix in="SourceAlpha" type="matrix" values="0 0 0 0 0 0 0 0 0 0 0 0 0 0 0 0 0 0 127 0" result="hardAlpha"/>
<feOffset dy="1"/>
<feGaussianBlur stdDeviation="0.5"/>
<feColorMatrix type="matrix" values="0 0 0 0 0 0 0 0 0 0 0 0 0 0 0 0 0 0 0.25 0"/>
<feBlend mode="normal" in2="BackgroundImageFix" result="effect1_dropShadow_681_19"/>
<feBlend mode="normal" in="SourceGraphic" in2="effect1_dropShadow_681_19" result="shape"/>
</filter>
</defs>
</svg>
