<svg width="32" height="32" viewBox="0 0 32 32" fill="none" xmlns="http://www.w3.org/2000/svg">
<path d="M28.4345 17.975L28.4734 27.9813C28.4734 28.1563 28.4623 28.3187 28.4456 28.4875V29.5C28.4456 30.8813 27.4511 32 26.2233 32H25.3344C25.2733 32 25.2122 31.9437 25.151 31.9937C25.0733 31.9437 24.9955 32 24.9177 32H21.7787C20.5509 32 19.5564 30.8813 19.5564 29.5V24C19.5564 22.8937 18.7619 22 17.7785 22H14.2228C13.2394 22 12.445 22.8937 12.445 24V29.5C12.445 30.8813 11.4505 32 10.2226 32H7.11696C7.03363 32 6.95029 31.9937 6.86695 31.9875C6.80028 31.9937 6.73361 32 6.66694 32H5.77802C4.55074 32 3.5557 30.8813 3.5557 29.5V22.5C3.5557 22.4438 3.55737 22.3813 3.5607 22.325V17.975H1.78063C0.778921 17.975 0 17.0938 0 15.9688C0 15.4062 0.166896 14.9062 0.556134 14.4688L14.8006 0.501C15.1895 0.062625 15.634 0 16.0229 0C16.4118 0 16.8563 0.12525 17.1952 0.438375L23.1121 6.29375V4C23.1121 2.89562 23.9065 2 24.8899 2H26.6678C27.6511 2 28.4456 2.89562 28.4456 4V11.5625L31.3791 14.4688C31.8235 14.9062 32.0513 15.4062 31.9902 15.9688C31.9902 17.0938 31.1568 17.975 30.2124 17.975H28.4345Z" fill="#2196F3"/>
</svg>
