<svg width="32" height="32" viewBox="0 0 32 32" fill="none" xmlns="http://www.w3.org/2000/svg">
<path d="M18.2847 2V3.2C23.4987 4.12688 27.427 8.1625 27.427 13V14.175C27.427 17.1188 28.6627 19.95 30.8911 22.15L31.4197 22.6688C32.0196 23.2625 32.1696 24.1 31.7982 24.8188C31.4268 25.5375 30.6126 26 29.7126 26H2.28557C1.38562 26 0.569309 25.5375 0.200615 24.8188C-0.168079 24.1 -0.0206089 23.2625 0.577379 22.6688L1.10706 22.15C3.33837 19.95 4.57116 17.1188 4.57116 14.175V13C4.57116 8.1625 8.43523 4.12688 13.7135 3.2V2C13.7135 0.895625 14.7349 0 15.9991 0C17.2633 0 18.2847 0.895625 18.2847 2ZM15.9991 32C14.7849 32 13.6207 31.5812 12.7636 30.8312C11.9065 30.0812 11.4279 29.0063 11.4279 28H20.5703C20.5703 29.0063 20.0917 30.0812 19.2346 30.8312C18.3775 31.5812 17.149 32 15.9991 32Z" fill="#DDDDDD"/>
</svg>
