<svg width="23" height="24" viewBox="0 0 23 24" fill="none" xmlns="http://www.w3.org/2000/svg">
<path d="M6.89744 19.2C5.63291 19.2 4.60979 20.28 4.60979 21.6C4.60979 22.92 5.63291 24 6.89744 24C8.16197 24 9.19658 22.92 9.19658 21.6C9.19658 20.28 8.16197 19.2 6.89744 19.2ZM0 1.2C0 1.86 0.517308 2.4 1.14957 2.4H2.29915L6.43761 11.508L4.88569 14.436C4.0465 16.044 5.15009 18 6.89744 18H19.5427C20.175 18 20.6923 17.46 20.6923 16.8C20.6923 16.14 20.175 15.6 19.5427 15.6H6.89744L8.16197 13.2H16.7263C17.5885 13.2 18.3472 12.708 18.738 11.964L22.8535 4.176C23.2789 3.384 22.7271 2.4 21.8534 2.4H4.8397L4.06949 0.684C3.88556 0.264 3.47171 0 3.03487 0H1.14957C0.517308 0 0 0.54 0 1.2ZM18.3932 19.2C17.1286 19.2 16.1055 20.28 16.1055 21.6C16.1055 22.92 17.1286 24 18.3932 24C19.6577 24 20.6923 22.92 20.6923 21.6C20.6923 20.28 19.6577 19.2 18.3932 19.2Z" fill="#2196F3"/>
</svg>
