<svg width="28" height="28" viewBox="0 0 28 28" fill="none" xmlns="http://www.w3.org/2000/svg">
<path d="M28 4.66655H23.9165V5.83345C23.9165 10.3358 20.2524 14 15.75 14C11.2476 14 7.58345 10.3358 7.58345 5.83345V4.66655H5.40365L5.03125 2.3037C4.8307 1.0367 3.61725 0 2.33345 0H0V2.33345H2.67295L5.62275 21.0136C5.72285 21.6471 6.3301 22.1665 6.97165 22.1665H25.6665V19.8334H7.7987L7.4298 17.5H25.6665L28 4.66655Z" fill="#2196F3"/>
<path d="M11.6665 25.6666C11.6665 26.9542 10.6221 28 9.33345 28C8.0458 28 7 26.9542 7 25.6666C7 24.3768 8.0458 23.3335 9.33345 23.3335C10.6221 23.3335 11.6665 24.3768 11.6665 25.6666Z" fill="#2196F3"/>
<path d="M22.1665 25.6666C22.1665 26.9542 21.1221 28 19.8334 28C18.5447 28 17.5 26.9542 17.5 25.6666C17.5 24.3768 18.5447 23.3335 19.8334 23.3335C21.1221 23.3335 22.1665 24.3768 22.1665 25.6666Z" fill="#2196F3"/>
<path d="M15.75 0C12.5279 0 9.91656 2.61135 9.91656 5.83345C9.91656 9.0552 12.5279 11.6665 15.75 11.6665C18.9721 11.6665 21.5835 9.0552 21.5835 5.83345C21.5835 2.61135 18.9721 0 15.75 0ZM19.25 6.70845H16.625V9.33345H14.875V6.70845H12.25V4.95845H14.875V2.33345H16.625V4.95845H19.25V6.70845Z" fill="#2196F3"/>
</svg>
